<?xml version="1.0" encoding="utf-8"?>
<!-- Generator: Adobe Illustrator 24.0.3, SVG Export Plug-In . SVG Version: 6.00 Build 0)  -->
<svg version="1.1" id="type" xmlns="http://www.w3.org/2000/svg" xmlns:xlink="http://www.w3.org/1999/xlink" x="0px" y="0px"
	 viewBox="0 0 100 100" style="enable-background:new 0 0 100 100;" xml:space="preserve">
<style type="text/css">
	.st0{fill:#FFFFFF;}
	.st1{fill:#91B5C7;}
</style>
<g>
	<circle class="st0" cx="50" cy="50" r="50"/>
	<path class="st1" d="M53.22,61.65l-4.21,16.97c-0.08,0.2-0.3,0.31-0.51,0.26c-0.21-0.05-0.35-0.25-0.33-0.46l-0.95-17.43l-8.81,5.4
		c-0.19,0.09-0.41,0.03-0.53-0.14c-0.12-0.16-0.11-0.39,0.02-0.54l4.3-6.73l-20.8,2.18c-0.22,0.03-0.43-0.11-0.48-0.33
		c-0.05-0.22,0.07-0.44,0.28-0.51L37,53.82l-14.84-2.44c-0.22-0.05-0.37-0.26-0.33-0.48c0.03-0.23,0.23-0.39,0.46-0.37l19.42-1.17
		l-9.94-19.27c-0.11-0.19-0.06-0.44,0.11-0.57c0.18-0.13,0.43-0.11,0.58,0.05l15.8,15.39l4.13-26.41c0.03-0.22,0.23-0.39,0.46-0.37
		c0.22,0.01,0.4,0.2,0.41,0.42l0.88,26.55l5.44-5.79c0.13-0.15,0.35-0.18,0.53-0.09c0.18,0.09,0.26,0.29,0.22,0.48l-0.11,6.19
		l16.1-7.36c0.2-0.09,0.44-0.03,0.55,0.16c0.12,0.18,0.08,0.43-0.09,0.57L60.48,52.34l11.39,6.25c0.19,0.1,0.28,0.31,0.22,0.52
		c-0.06,0.2-0.26,0.33-0.47,0.3l-11.8-0.3l12.21,18.13C79.96,70.81,85.04,61,85.04,50c0-19.35-15.69-35.04-35.04-35.04
		c-19.35,0-35.04,15.69-35.04,35.04c0,19.35,15.69,35.04,35.04,35.04c7.24,0,13.97-2.2,19.56-5.96L53.22,61.65z"/>
	<g>
		<g>
			<path d="M39.21,94.29l0.11-0.57l2.73-2.24c0.25-0.22,0.4-0.44,0.45-0.72c0.11-0.55-0.14-0.93-0.71-1.05
				c-0.48-0.1-0.97,0.08-1.11,0.79L40,90.37c0.19-0.94,0.96-1.45,1.91-1.25c0.59,0.12,1,0.45,1.19,0.89
				c0.11,0.27,0.15,0.55,0.08,0.89c-0.09,0.43-0.32,0.75-0.69,1.05l-2.29,1.9l2.37,0.48l-0.13,0.62L39.21,94.29z"/>
			<path d="M47.64,95.13c-0.29,0.25-0.68,0.42-1.22,0.38c-0.54-0.04-0.9-0.27-1.15-0.56c-0.51-0.6-0.55-1.38-0.47-2.44
				c0.08-1.06,0.23-1.83,0.83-2.34c0.29-0.25,0.67-0.41,1.22-0.37c0.55,0.04,0.9,0.26,1.15,0.55c0.51,0.6,0.55,1.39,0.47,2.44
				C48.39,93.85,48.24,94.61,47.64,95.13z M47.47,90.72c-0.15-0.16-0.37-0.28-0.66-0.31s-0.53,0.06-0.7,0.2
				c-0.5,0.41-0.54,1.21-0.6,1.95c-0.06,0.74-0.13,1.54,0.3,2.02c0.15,0.16,0.37,0.28,0.66,0.31c0.29,0.02,0.53-0.06,0.7-0.2
				c0.5-0.41,0.54-1.21,0.6-1.95C47.82,92,47.9,91.2,47.47,90.72z"/>
			<path d="M50.59,95.57L50.56,95l2.09-2.85c0.19-0.27,0.28-0.52,0.26-0.8c-0.03-0.56-0.37-0.87-0.94-0.84
				c-0.49,0.02-0.92,0.31-0.88,1.04l-0.7,0.03c-0.05-0.96,0.57-1.63,1.54-1.68c0.6-0.03,1.08,0.19,1.37,0.57
				c0.18,0.23,0.28,0.49,0.29,0.84c0.02,0.43-0.13,0.81-0.41,1.19l-1.76,2.4l2.42-0.11l0.03,0.63L50.59,95.57z"/>
			<path d="M58.75,94.35c-0.22,0.31-0.55,0.57-1.09,0.66c-0.54,0.09-0.94-0.04-1.25-0.26c-0.64-0.46-0.86-1.2-1.04-2.25
				c-0.18-1.05-0.22-1.83,0.24-2.47c0.22-0.31,0.55-0.56,1.09-0.65c0.54-0.09,0.94,0.03,1.25,0.25c0.64,0.46,0.87,1.21,1.04,2.26
				C59.17,92.93,59.2,93.7,58.75,94.35z M57.51,90.12c-0.18-0.12-0.42-0.18-0.71-0.13c-0.29,0.05-0.5,0.19-0.63,0.36
				c-0.39,0.52-0.24,1.3-0.11,2.03c0.12,0.73,0.24,1.53,0.78,1.88c0.18,0.12,0.43,0.18,0.71,0.13c0.29-0.05,0.5-0.19,0.63-0.36
				c0.39-0.52,0.24-1.3,0.11-2.03C58.17,91.27,58.05,90.48,57.51,90.12z"/>
		</g>
	</g>
	<g>
		<path d="M22.58,78.94l-0.35,0.59c0.51-0.16,1.19,0,1.67,0.42c0.42,0.37,0.72,0.87,0.76,1.43c0.06,0.79-0.33,1.48-0.99,2.24
			c-0.59,0.67-1.22,1.22-2.07,1.26c-0.57,0.03-1.11-0.17-1.54-0.54c-0.48-0.42-0.77-0.97-0.79-1.54c-0.01-0.39,0.08-0.79,0.36-1.14
			l0.56,0.49c-0.15,0.21-0.21,0.41-0.22,0.63c-0.01,0.39,0.19,0.76,0.54,1.06c0.29,0.25,0.67,0.38,1.05,0.35
			c0.66-0.06,1.18-0.61,1.57-1.05c0.37-0.42,0.87-1.06,0.83-1.72c-0.02-0.39-0.21-0.72-0.49-0.97c-0.3-0.26-0.67-0.4-1.03-0.38
			c-0.52,0.03-0.97,0.37-1.3,0.76l1.14,0.99l-0.43,0.5l-1.61-1.41l1.99-2.28L22.58,78.94z"/>
		<path d="M19.65,75.64c0.81,0.96,0.75,2.06-0.32,2.96l-2.72,2.3l-0.46-0.54l2.73-2.31c0.68-0.58,0.9-1.25,0.27-1.99
			c-0.63-0.75-1.32-0.65-2.01-0.07l-2.73,2.31l-0.46-0.54l2.72-2.3C17.74,74.57,18.84,74.68,19.65,75.64z"/>
		<path d="M17.04,72.37l-4.68,3.11l-0.4-0.6l4.68-3.11L17.04,72.37z"/>
		<path d="M13.34,67.08c0.52,0.18,0.93,0.57,1.18,1.05l0.9,1.74l-5,2.58l-0.9-1.74c-0.25-0.49-0.33-1.05-0.17-1.57
			c0.24-0.82,0.94-1.3,1.66-1.67C11.73,67.09,12.54,66.8,13.34,67.08z M9.99,69.34c-0.11,0.35-0.05,0.74,0.11,1.07l0.57,1.11
			l3.84-1.98l-0.57-1.11c-0.17-0.32-0.45-0.6-0.8-0.71c-0.61-0.19-1.27,0.11-1.8,0.39C10.8,68.38,10.19,68.74,9.99,69.34z"/>
		<path d="M12.85,64.49L7.53,66.3l-1.21-3.56l0.61-0.21l0.99,2.89l1.62-0.55l-0.87-2.54l0.63-0.22l0.87,2.54l1.84-0.63l-0.99-2.89
			l0.61-0.21L12.85,64.49z"/>
		<path d="M10.13,56.08c0.45,0.31,0.74,0.87,0.85,1.46c0.13,0.67,0.05,1.24-0.22,1.68c-0.26,0.41-0.69,0.75-1.21,0.85l-0.14-0.72
			c0.33-0.06,0.62-0.29,0.79-0.56c0.19-0.3,0.21-0.73,0.14-1.12c-0.08-0.42-0.24-0.76-0.52-0.97c-0.19-0.14-0.4-0.21-0.7-0.15
			c-0.43,0.08-0.73,0.42-0.71,1.1c0.01,0.31,0.03,0.59,0.04,0.9c0.04,0.85-0.3,1.58-1.18,1.75c-0.41,0.08-0.85-0.03-1.18-0.27
			c-0.43-0.31-0.71-0.77-0.82-1.34c-0.1-0.54-0.03-1.1,0.25-1.53c0.25-0.4,0.61-0.65,1.08-0.76l0.14,0.72
			c-0.27,0.07-0.49,0.22-0.64,0.41c-0.2,0.26-0.28,0.62-0.19,1.05c0.08,0.4,0.25,0.72,0.57,0.91c0.19,0.11,0.39,0.16,0.64,0.11
			c0.5-0.1,0.64-0.55,0.62-0.98c-0.02-0.32-0.03-0.63-0.04-0.94c-0.04-0.94,0.4-1.67,1.27-1.84C9.43,55.73,9.81,55.86,10.13,56.08z"
			/>
		<path d="M5.26,52.59l4.96-0.33l0.05,0.71L5.31,53.3l0.11,1.67l-0.66,0.04L4.5,50.96l0.66-0.04L5.26,52.59z"/>
		<path d="M10.3,46.47l-1.35,0.4l-0.12,2.44l1.31,0.52l-0.03,0.71l-5.53-2.25l0.04-0.83l5.72-1.72L10.3,46.47z M5.3,47.93l2.87,1.13
			l0.09-1.99L5.3,47.93z"/>
		<path d="M11.15,41.05l-2.5,0.61l-0.29,1.53l2.3,0.44l-0.13,0.69L5,43.27l0.41-2.17c0.12-0.65,0.39-1.07,0.76-1.31
			c0.33-0.21,0.72-0.32,1.21-0.22c0.48,0.09,0.78,0.31,1.01,0.63c0.14,0.2,0.23,0.46,0.26,0.74l2.64-0.65L11.15,41.05z M6.05,41.22
			L5.77,42.7l1.94,0.37l0.28-1.47c0.12-0.66-0.05-1.17-0.75-1.31C6.53,40.15,6.17,40.57,6.05,41.22z"/>
		<path d="M11.47,31.99c0.16,0.39,0.14,0.88-0.1,1.45l-0.53,1.28l2.01,0.84l-0.27,0.65l-5.19-2.17l0.8-1.93
			c0.25-0.61,0.6-0.97,1.02-1.12c0.38-0.14,0.81-0.13,1.27,0.06C10.98,31.28,11.31,31.6,11.47,31.99z M8.78,32.39l-0.53,1.26
			l1.99,0.83l0.53-1.27c0.29-0.7,0.12-1.18-0.58-1.47C9.53,31.47,9.05,31.75,8.78,32.39z"/>
		<path d="M14.82,31.25l-4.87-2.81l0.35-0.61l4.3,2.48l1.35-2.34l0.57,0.33L14.82,31.25z"/>
		<path d="M19.43,24.41l-1.34-0.45L16.6,25.9l0.78,1.17l-0.44,0.57l-3.25-5.01l0.5-0.66l5.68,1.85L19.43,24.41z M14.49,22.75
			l1.71,2.57l1.21-1.58L14.49,22.75z"/>
		<path d="M18.34,18.31l3.53,3.49l-0.5,0.51l-3.53-3.49l-1.18,1.19l-0.47-0.46l2.85-2.89l0.47,0.46L18.34,18.31z"/>
		<path d="M24.2,19.65l-3.61-4.32l0.55-0.46l3.61,4.32L24.2,19.65z"/>
		<path d="M29.39,15.88L24.6,13.6l2.47,3.79l-0.57,0.37l-3.08-4.71l0.66-0.43l4.8,2.29l-2.48-3.8l0.57-0.37l3.08,4.71L29.39,15.88z"
			/>
		<path d="M33.82,13.7c-1.15,0.52-2.19,0.14-2.76-1.14L29.6,9.31l0.65-0.29l1.46,3.27c0.37,0.82,0.95,1.21,1.84,0.81
			c0.89-0.4,0.99-1.1,0.62-1.91l-1.46-3.27l0.65-0.29l1.45,3.26C35.39,12.17,34.97,13.19,33.82,13.7z"/>
		<path d="M41.94,10.94l-1.19-4.59l-0.52,4.95l-0.54,0.14l-2.86-4.12l1.2,4.63l-0.65,0.17l-1.4-5.44l0.98-0.25l2.79,4l0.49-4.85
			l0.96-0.25l1.4,5.44L41.94,10.94z"/>
		<path d="M50.86,9.69c-0.38,0.39-0.98,0.58-1.58,0.59c-0.68,0.01-1.23-0.17-1.62-0.51c-0.36-0.33-0.62-0.8-0.63-1.34l0.74-0.01
			c0.01,0.33,0.18,0.66,0.41,0.88c0.26,0.24,0.69,0.34,1.08,0.33c0.43-0.01,0.79-0.1,1.04-0.35c0.17-0.16,0.28-0.36,0.27-0.66
			c-0.01-0.44-0.29-0.79-0.96-0.89c-0.31-0.04-0.59-0.08-0.89-0.12c-0.84-0.11-1.51-0.57-1.53-1.46c-0.01-0.42,0.18-0.83,0.47-1.12
			c0.38-0.37,0.88-0.57,1.46-0.58c0.55-0.01,1.09,0.16,1.47,0.51c0.35,0.32,0.54,0.72,0.56,1.19l-0.74,0.01
			c-0.02-0.28-0.13-0.52-0.29-0.7c-0.22-0.24-0.56-0.38-1-0.37c-0.4,0.01-0.75,0.13-0.99,0.41c-0.14,0.17-0.22,0.36-0.22,0.61
			c0.01,0.51,0.43,0.73,0.85,0.78c0.32,0.03,0.63,0.08,0.94,0.12c0.94,0.12,1.58,0.68,1.59,1.56C51.33,9.06,51.14,9.41,50.86,9.69z"
			/>
		<path d="M52.96,10.24l0.64-5.58l3.73,0.43l-0.07,0.65l-3.03-0.35l-0.2,1.7l2.66,0.31l-0.08,0.66l-2.66-0.31l-0.22,1.93l3.03,0.35
			l-0.07,0.65L52.96,10.24z"/>
		<path d="M61.63,11.86l-0.11-1.4l-2.37-0.61l-0.77,1.18l-0.69-0.18l3.33-4.95l0.8,0.21l0.52,5.94L61.63,11.86z M61.22,6.67
			l-1.69,2.58l1.93,0.5L61.22,6.67z"/>
		<path d="M63.51,12.49l2.08-5.23l0.66,0.26l-1.84,4.62l2.51,1l-0.24,0.61L63.51,12.49z"/>
		<path d="M72.46,16.47c-0.55,0.13-1.13,0.01-1.61-0.28c-0.48-0.3-0.84-0.76-0.97-1.31c-0.21-0.83,0.13-1.59,0.6-2.35
			c0.47-0.76,1-1.41,1.83-1.59c0.55-0.13,1.13-0.01,1.61,0.28c0.48,0.3,0.84,0.76,0.97,1.31c0.21,0.83-0.13,1.59-0.6,2.35
			C73.82,15.64,73.29,16.28,72.46,16.47z M74.21,12.69c-0.08-0.38-0.33-0.7-0.65-0.89c-0.32-0.2-0.72-0.27-1.09-0.18
			c-0.64,0.16-1.06,0.8-1.37,1.3c-0.31,0.5-0.69,1.16-0.55,1.81c0.09,0.38,0.33,0.7,0.65,0.89c0.32,0.2,0.72,0.27,1.09,0.18
			c0.64-0.16,1.06-0.8,1.37-1.3C73.97,13.99,74.35,13.33,74.21,12.69z"/>
		<path d="M77.81,14.86l-1.17,1.41l2.02,1.66l-0.42,0.51l-2.02-1.66l-1.57,1.91l-0.55-0.45l3.58-4.34l2.81,2.32l-0.41,0.5
			L77.81,14.86z"/>
		<path d="M84.28,21.15l-3.77,3.23l-0.47-0.54l3.77-3.24l-1.09-1.27l0.5-0.43l2.65,3.08l-0.5,0.43L84.28,21.15z"/>
		<path d="M84.37,29.78l1.39-2.16l-0.84-1.31l-1.97,1.27l-0.38-0.59l4.73-3.04l1.19,1.86c0.36,0.55,0.45,1.04,0.35,1.47
			c-0.09,0.38-0.31,0.73-0.72,0.99c-0.41,0.26-0.78,0.31-1.17,0.24c-0.24-0.04-0.48-0.17-0.7-0.35l-1.47,2.28L84.37,29.78z
			 M87.94,26.15l-0.81-1.26l-1.66,1.07l0.81,1.26c0.36,0.56,0.84,0.82,1.45,0.43C88.33,27.26,88.3,26.71,87.94,26.15z"/>
		<path d="M86.98,35.08L88,34.11l-1.01-2.23l-1.4,0.14l-0.3-0.65l5.95-0.52l0.34,0.75l-4.3,4.14L86.98,35.08z M90.76,31.5
			l-3.07,0.31l0.82,1.81L90.76,31.5z"/>
		<path d="M88.67,40.31l3.59-3.9l-4.35,1.24L87.72,37l5.41-1.55l0.22,0.76l-3.6,3.9l4.36-1.25l0.19,0.66l-5.41,1.55L88.67,40.31z"/>
		<path d="M90.17,46.57c-0.43-0.34-0.68-0.92-0.75-1.51c-0.09-0.68,0.04-1.25,0.34-1.67c0.29-0.4,0.74-0.7,1.26-0.76l0.09,0.73
			c-0.33,0.04-0.64,0.25-0.83,0.5c-0.21,0.28-0.26,0.72-0.21,1.11c0.05,0.43,0.18,0.78,0.45,1c0.18,0.15,0.39,0.24,0.69,0.2
			c0.43-0.05,0.76-0.37,0.78-1.05c0.01-0.31,0.01-0.59,0.02-0.9c0.02-0.85,0.4-1.56,1.3-1.67c0.42-0.05,0.84,0.09,1.16,0.35
			c0.41,0.34,0.66,0.81,0.73,1.4c0.07,0.54-0.05,1.1-0.35,1.52c-0.28,0.38-0.66,0.61-1.13,0.68l-0.09-0.73
			c0.27-0.05,0.51-0.18,0.67-0.36c0.22-0.24,0.32-0.6,0.26-1.03c-0.05-0.4-0.2-0.73-0.51-0.94c-0.18-0.12-0.38-0.18-0.63-0.15
			c-0.5,0.06-0.68,0.51-0.68,0.93c0,0.32-0.02,0.63-0.03,0.95c-0.02,0.95-0.51,1.64-1.39,1.75C90.85,46.97,90.48,46.81,90.17,46.57z
			"/>
		<path d="M92.44,52.66c-0.3-0.31-0.45-0.77-0.44-1.39l0.03-1.39l-2.18-0.04l0.01-0.7l5.62,0.11l-0.04,2.09
			c-0.01,0.66-0.2,1.12-0.53,1.42c-0.3,0.26-0.71,0.41-1.2,0.4C93.16,53.15,92.73,52.97,92.44,52.66z M94.8,51.3l0.03-1.36
			l-2.16-0.04l-0.03,1.37c-0.01,0.75,0.33,1.14,1.08,1.15C94.43,52.44,94.78,52,94.8,51.3z"/>
		<path d="M89.11,57.78l1.39-0.25l0.37-2.42l-1.25-0.65l0.11-0.71L95,56.57l-0.13,0.82L89,58.51L89.11,57.78z M94.24,56.86
			l-2.74-1.42l-0.3,1.97L94.24,56.86z"/>
		<path d="M87.62,63.21l2.55-0.33l0.46-1.48l-2.24-0.69l0.21-0.67l5.37,1.65l-0.65,2.11c-0.19,0.63-0.5,1.01-0.9,1.22
			c-0.35,0.17-0.75,0.23-1.22,0.09c-0.47-0.14-0.74-0.39-0.94-0.74c-0.12-0.21-0.18-0.48-0.18-0.76l-2.7,0.35L87.62,63.21z
			 M92.7,63.61l0.44-1.43l-1.89-0.58l-0.44,1.43c-0.2,0.64-0.08,1.17,0.6,1.38C92.1,64.61,92.5,64.24,92.7,63.61z"/>
		<path d="M86.61,65.81l5.07,2.46l-1.64,3.39l-0.59-0.28l1.33-2.75l-1.54-0.75l-1.17,2.42l-0.6-0.29l1.17-2.42l-1.75-0.85
			l-1.33,2.75l-0.59-0.28L86.61,65.81z"/>
		<path d="M82.08,73.65l5.28,0.29l-3.72-2.56l0.39-0.56L88.65,74l-0.45,0.65l-5.29-0.3l3.73,2.57l-0.39,0.56l-4.62-3.18L82.08,73.65
			z"/>
		<path d="M78.41,78.67c-0.02-0.48,0.17-1.07,0.58-1.51c0.38-0.41,0.91-0.68,1.48-0.7c0.85-0.04,1.52,0.45,2.17,1.06
			c0.66,0.61,1.19,1.24,1.21,2.09c0.01,0.57-0.21,1.11-0.6,1.52c-0.42,0.45-0.96,0.68-1.44,0.7c-0.47,0.01-0.92-0.13-1.32-0.47
			l0.5-0.53c0.23,0.21,0.51,0.3,0.78,0.31c0.33,0,0.7-0.15,0.99-0.46c0.26-0.28,0.4-0.65,0.38-1.04c-0.04-0.66-0.58-1.19-1.01-1.59
			c-0.43-0.4-1-0.91-1.66-0.89c-0.39,0.01-0.75,0.18-1.01,0.46c-0.29,0.31-0.41,0.71-0.38,1.04c0.03,0.27,0.16,0.56,0.38,0.78
			l-0.5,0.53C78.61,79.58,78.43,79.13,78.41,78.67z"/>
		<path d="M76.76,82.52l-1.47-1.75l0.55-0.46l1.47,1.75l3.59,1.34l-0.61,0.51l-2.85-1.1l0.59,2.99l-0.58,0.48L76.76,82.52z"/>
	</g>
</g>
</svg>
