<?xml version="1.0" standalone="no"?>
<!DOCTYPE svg PUBLIC "-//W3C//DTD SVG 20010904//EN"
 "http://www.w3.org/TR/2001/REC-SVG-20010904/DTD/svg10.dtd">
<svg version="1.0" xmlns="http://www.w3.org/2000/svg"
 width="2830.000000pt" height="737.000000pt" viewBox="0 0 2830.000000 737.000000"
 preserveAspectRatio="xMidYMid meet">

<g transform="translate(0.000000,737.000000) scale(0.100000,-0.100000)"
fill="#000000" stroke="none">
<path d="M9868 6097 l-87 -52 -3 -240 -3 -240 -77 -3 -78 -3 0 -74 0 -75 80 0
80 0 0 -582 c0 -643 1 -659 63 -733 45 -55 96 -75 192 -75 80 0 179 20 198 39
10 10 30 151 22 159 -2 2 -13 -2 -25 -8 -34 -18 -174 -25 -209 -10 -61 25 -61
20 -61 644 l0 566 145 0 145 0 0 75 0 75 -145 0 -145 0 -2 294 -3 295 -87 -52z"/>
<path d="M14838 6097 l-88 -51 -2 -240 -3 -241 -77 -3 -78 -3 0 -74 0 -75 80
0 80 0 0 -582 c0 -643 1 -659 63 -733 45 -55 96 -75 192 -75 80 0 179 20 198
39 10 10 30 151 24 158 -2 1 -25 -4 -52 -12 -65 -20 -169 -19 -200 1 -13 8
-28 29 -34 46 -7 21 -11 218 -11 594 l0 564 145 0 145 0 0 75 0 75 -145 0
-145 0 -2 294 -3 294 -87 -51z"/>
<path d="M19568 6097 l-88 -52 0 -997 0 -998 90 0 90 0 0 1050 c0 578 -1 1050
-2 1049 -2 0 -42 -24 -90 -52z"/>
<path d="M24088 6097 l-88 -52 -2 -240 -3 -240 -77 -3 -78 -3 0 -74 0 -75 80
0 80 0 0 -582 c0 -643 1 -659 63 -733 45 -55 96 -75 192 -75 80 0 179 20 198
39 10 10 30 151 22 159 -2 2 -13 -2 -25 -8 -35 -19 -174 -25 -211 -10 -59 25
-59 22 -59 645 l0 565 145 0 145 0 0 75 0 75 -145 0 -145 0 -2 295 -3 294 -87
-52z"/>
<path d="M15487 6110 c-19 -16 -40 -43 -47 -60 -33 -79 40 -180 129 -180 34 0
84 38 106 81 62 119 -89 247 -188 159z"/>
<path d="M20890 6099 c-179 -35 -330 -208 -404 -462 -101 -348 -96 -874 10
-1197 66 -199 151 -313 281 -377 67 -33 85 -38 169 -41 74 -4 107 0 161 16
127 39 232 139 302 286 52 110 53 106 -33 148 -75 37 -75 37 -82 15 -13 -43
-76 -161 -106 -199 -67 -85 -189 -119 -297 -83 -136 45 -233 237 -272 540 -19
146 -16 522 4 665 41 280 130 459 252 506 70 26 183 16 238 -22 52 -37 95 -99
137 -201 18 -43 33 -79 35 -81 1 -1 38 14 82 34 l81 37 -14 39 c-28 81 -91
184 -147 245 -106 113 -250 161 -397 132z"/>
<path d="M8063 6074 c-10 -5 -13 -217 -13 -1015 l0 -1009 95 0 95 0 -2 1013
-3 1012 -80 2 c-44 1 -86 -1 -92 -3z"/>
<path d="M3890 3630 l0 -2440 525 0 525 0 0 1205 0 1205 635 0 635 0 0 520 0
520 -635 0 -635 0 0 140 0 140 635 0 635 0 0 575 0 575 -1160 0 -1160 0 0
-2440z"/>
<path d="M6505 6049 c-11 -16 -1 -19 13 -3 7 8 8 14 3 14 -5 0 -13 -5 -16 -11z"/>
<path d="M9002 5590 c-67 -14 -146 -54 -195 -99 -24 -23 -49 -41 -56 -41 -7 0
-11 21 -11 55 l0 55 -95 0 -95 0 0 -755 0 -755 95 0 95 0 0 608 0 608 54 56
c79 80 131 103 236 103 75 0 91 -3 132 -27 56 -34 92 -99 108 -198 6 -39 10
-285 10 -607 l0 -543 95 0 95 0 0 518 c0 284 -5 558 -10 608 -28 268 -142 400
-360 418 -30 3 -74 1 -98 -4z"/>
<path d="M10790 5586 c-211 -46 -352 -253 -395 -581 -58 -443 66 -830 303
-947 57 -29 79 -33 158 -36 76 -3 102 0 161 21 83 29 161 78 225 144 l47 48
-48 55 -48 54 -59 -52 c-71 -64 -125 -91 -201 -102 -220 -31 -331 116 -368
487 l-6 63 388 2 388 3 -1 135 c-3 403 -150 663 -399 709 -69 13 -74 13 -145
-3z m196 -191 c92 -54 156 -203 170 -397 l7 -88 -298 0 -298 0 6 85 c12 165
73 328 144 382 78 59 186 67 269 18z"/>
<path d="M11997 5590 c-60 -15 -128 -55 -182 -107 l-50 -48 -3 63 -3 62 -94 0
-95 0 0 -755 0 -755 95 0 95 0 0 602 0 602 27 38 c30 45 103 100 152 117 58
19 157 9 231 -23 12 -5 20 12 38 81 12 49 22 91 22 95 0 22 -171 43 -233 28z"/>
<path d="M12842 5590 c-67 -14 -146 -54 -195 -99 -24 -23 -49 -41 -56 -41 -7
0 -11 21 -11 55 l0 55 -95 0 -95 0 0 -755 0 -755 95 0 95 0 0 608 0 608 54 56
c79 80 131 103 236 103 75 0 91 -3 132 -27 56 -34 92 -99 108 -198 6 -39 10
-285 10 -607 l0 -543 95 0 95 0 0 518 c0 284 -5 558 -10 608 -28 268 -142 400
-360 418 -30 3 -74 1 -98 -4z"/>
<path d="M13923 5589 c-76 -13 -179 -54 -251 -101 l-62 -41 26 -46 c44 -74 48
-81 56 -81 4 0 31 15 60 33 89 57 142 72 248 72 103 0 137 -11 185 -63 42 -45
55 -109 55 -275 l0 -149 -22 5 c-13 3 -50 16 -83 27 -166 61 -366 26 -484 -85
-89 -84 -135 -212 -135 -380 0 -247 95 -418 261 -470 84 -27 200 -17 285 22
36 17 83 46 104 65 66 58 74 57 74 -12 l0 -60 95 0 95 0 0 558 c0 306 -4 593
-9 637 -25 210 -122 316 -317 345 -79 11 -109 11 -181 -1z m166 -759 c28 -5
74 -19 101 -31 l50 -21 0 -228 0 -228 -46 -41 c-71 -62 -145 -93 -236 -99 -42
-2 -88 -2 -103 2 -40 10 -100 71 -126 129 -22 47 -24 66 -24 197 0 141 1 147
30 205 32 64 59 88 121 110 46 17 160 19 233 5z"/>
<path d="M16320 5586 c-283 -60 -451 -401 -426 -859 20 -358 133 -583 341
-679 43 -20 66 -23 166 -23 113 0 116 1 191 38 210 103 328 372 328 747 0 368
-115 637 -313 735 -65 32 -160 56 -212 54 -11 0 -45 -6 -75 -13z m167 -171
c105 -31 182 -138 221 -307 25 -108 24 -502 -1 -608 -34 -147 -99 -250 -183
-290 -66 -32 -177 -31 -241 2 -57 30 -115 101 -144 178 -45 119 -53 183 -53
420 -1 200 2 235 22 314 12 49 34 112 48 140 68 137 190 193 331 151z"/>
<path d="M17602 5590 c-67 -14 -146 -54 -195 -99 -24 -23 -49 -41 -56 -41 -7
0 -11 21 -11 55 l0 55 -95 0 -95 0 0 -755 0 -755 95 0 95 0 0 608 0 608 54 56
c79 80 131 103 236 103 75 0 91 -3 132 -27 56 -34 92 -99 108 -198 6 -39 10
-285 10 -607 l0 -543 95 0 95 0 0 518 c0 284 -5 558 -10 608 -28 268 -142 400
-360 418 -30 3 -74 1 -98 -4z"/>
<path d="M18683 5589 c-76 -13 -179 -54 -251 -101 l-62 -41 26 -46 c57 -97 48
-93 109 -51 82 56 140 74 250 74 109 1 141 -9 190 -62 42 -45 55 -109 55 -275
l0 -149 -22 5 c-13 3 -50 16 -83 27 -166 61 -366 26 -484 -85 -91 -85 -136
-214 -135 -385 1 -224 77 -380 219 -450 44 -22 64 -25 155 -25 97 0 110 2 172
32 37 17 87 50 111 72 24 23 49 41 56 41 7 0 11 -22 11 -60 l0 -60 95 0 95 0
0 568 c0 312 -5 599 -10 638 -26 201 -125 306 -316 334 -79 11 -109 11 -181
-1z m166 -759 c28 -5 74 -19 101 -31 l50 -21 0 -228 0 -228 -47 -41 c-95 -82
-217 -118 -328 -97 -49 9 -107 65 -136 129 -22 47 -24 66 -24 197 0 141 1 147
30 205 32 64 59 88 121 110 46 17 160 19 233 5z"/>
<path d="M21980 5586 c-238 -52 -386 -308 -406 -705 -21 -392 98 -709 308
-821 55 -30 74 -35 155 -38 153 -7 278 45 396 166 l48 49 -49 54 -49 53 -59
-52 c-72 -65 -125 -91 -205 -102 -216 -31 -327 117 -364 487 l-6 63 388 2 388
3 -1 135 c-3 403 -150 663 -399 709 -69 13 -74 13 -145 -3z m153 -170 c60 -22
101 -60 136 -127 42 -78 69 -179 77 -291 l7 -88 -298 0 -298 0 7 88 c17 229
105 393 227 422 51 12 100 11 142 -4z"/>
<path d="M23212 5590 c-67 -14 -146 -54 -195 -99 -24 -23 -49 -41 -56 -41 -7
0 -11 21 -11 55 l0 55 -95 0 -95 0 0 -755 0 -755 95 0 95 0 0 608 0 608 54 56
c79 80 131 103 236 103 75 0 91 -3 132 -27 56 -34 92 -99 108 -198 6 -39 10
-285 10 -607 l0 -543 95 0 95 0 0 518 c0 284 -5 558 -10 608 -28 268 -140 399
-358 418 -31 3 -76 1 -100 -4z"/>
<path d="M25000 5586 c-198 -43 -337 -234 -391 -536 -22 -122 -17 -413 9 -536
50 -236 152 -393 300 -462 80 -37 203 -43 301 -13 79 24 166 79 234 148 l47
49 -48 54 -49 55 -56 -52 c-69 -62 -127 -92 -205 -103 -219 -31 -330 117 -367
487 l-6 63 388 2 388 3 -1 135 c-3 403 -150 663 -399 709 -69 13 -74 13 -145
-3z m197 -192 c91 -53 156 -206 170 -400 l6 -84 -297 0 -296 0 0 53 c1 71 23
190 49 258 43 113 104 179 185 200 51 13 136 1 183 -27z"/>
<path d="M26207 5590 c-60 -15 -128 -55 -182 -107 l-50 -48 -3 63 -3 62 -94 0
-95 0 0 -755 0 -755 95 0 95 0 0 604 0 604 39 50 c50 63 142 112 210 112 42 0
122 -17 161 -34 12 -5 20 12 38 81 12 49 22 91 22 95 0 23 -170 43 -233 28z"/>
<path d="M15470 4805 l0 -755 90 0 90 0 0 755 0 755 -90 0 -90 0 0 -755z"/>
<path d="M8293 3326 c-61 -20 -107 -51 -138 -95 -50 -74 -58 -112 -63 -303
l-4 -178 -84 0 -84 0 0 -75 0 -75 85 0 85 0 0 -680 0 -680 90 0 90 0 0 680 0
680 120 0 120 0 0 75 0 75 -120 0 -120 0 0 158 c1 236 23 270 173 259 39 -2
80 -8 90 -12 15 -6 17 1 17 78 l0 85 -44 11 c-59 14 -160 13 -213 -3z"/>
<path d="M17928 3287 l-88 -52 0 -997 0 -998 90 0 90 0 0 1050 c0 578 -1 1050
-2 1049 -2 0 -42 -24 -90 -52z"/>
<path d="M19928 3287 l-88 -52 -2 -240 -3 -240 -77 -3 -78 -3 0 -74 0 -75 80
0 80 0 0 -582 c0 -643 1 -659 63 -733 45 -55 96 -75 192 -75 84 0 180 20 200
42 7 7 15 46 18 86 5 67 4 73 -11 67 -67 -28 -187 -33 -231 -10 -16 8 -34 28
-40 46 -8 22 -11 209 -11 595 l0 564 145 0 145 0 0 75 0 75 -145 0 -145 0 -2
295 -3 294 -87 -52z"/>
<path d="M18357 3300 c-19 -16 -40 -43 -47 -60 -33 -79 40 -180 129 -180 34 0
84 38 106 81 62 119 -89 247 -188 159z"/>
<path d="M11830 2518 c0 -462 -4 -786 -10 -836 -26 -208 -111 -302 -272 -302
-135 0 -228 93 -273 272 -9 35 -20 69 -23 76 -6 8 -32 5 -94 -11 l-86 -22 25
-85 c70 -242 201 -377 386 -398 208 -24 379 65 463 241 70 148 69 131 69 1017
l0 795 -92 3 -93 3 0 -753z"/>
<path d="M9063 2779 c-141 -24 -268 -128 -341 -279 -74 -155 -110 -366 -98
-583 20 -358 133 -583 341 -679 43 -20 66 -23 166 -23 113 0 116 1 191 38 209
103 328 371 328 742 0 450 -164 739 -446 785 -66 11 -69 11 -141 -1z m156
-175 c69 -20 123 -70 165 -155 60 -119 71 -192 71 -454 -1 -255 -11 -328 -63
-440 -60 -127 -134 -179 -258 -178 -94 1 -151 27 -204 94 -76 96 -109 227
-117 464 -8 235 16 404 74 520 68 137 190 192 332 149z"/>
<path d="M10297 2780 c-61 -16 -129 -55 -182 -106 l-50 -49 -3 63 -3 62 -94 0
-95 0 0 -755 0 -755 95 0 95 0 0 602 0 602 26 38 c50 72 147 127 224 128 41 0
121 -17 160 -34 12 -5 20 12 38 81 12 49 22 91 22 95 0 21 -174 42 -233 28z"/>
<path d="M12681 2779 c-285 -48 -463 -399 -437 -862 20 -358 133 -583 341
-679 43 -20 66 -23 166 -23 113 0 116 1 191 38 167 82 273 261 312 528 51 345
-19 693 -175 863 -60 66 -164 121 -254 136 -68 11 -69 11 -144 -1z m192 -187
c81 -36 150 -145 184 -292 25 -106 26 -500 0 -609 -49 -213 -145 -313 -301
-313 -162 0 -252 97 -304 332 -13 58 -17 124 -17 295 1 192 4 231 23 307 44
176 115 270 227 299 44 12 141 2 188 -19z"/>
<path d="M15123 2780 c-62 -13 -122 -47 -183 -104 l-55 -51 -3 63 -3 62 -94 0
-95 0 0 -755 0 -755 95 0 95 0 0 604 0 603 33 41 c61 78 141 122 221 122 38 0
119 -17 156 -34 12 -5 20 12 38 81 12 49 22 91 22 95 0 22 -160 42 -227 28z"/>
<path d="M15962 2780 c-70 -15 -144 -53 -203 -106 l-54 -48 -3 62 -3 62 -94 0
-95 0 0 -755 0 -755 95 0 95 0 0 609 0 609 55 55 c81 81 130 102 235 102 75 0
91 -3 132 -27 56 -34 92 -99 108 -198 6 -39 10 -285 10 -607 l0 -543 95 0 95
0 0 513 c0 281 -5 557 -10 612 -26 267 -141 401 -360 419 -30 3 -74 1 -98 -4z"/>
<path d="M17049 2779 c-77 -11 -183 -52 -257 -101 l-62 -41 26 -46 c44 -74 48
-81 56 -81 4 0 27 13 50 29 85 57 143 75 253 75 92 1 104 -1 147 -26 33 -20
53 -41 70 -75 21 -44 23 -64 26 -217 l4 -169 -24 6 c-12 3 -50 16 -83 27 -74
27 -201 37 -277 21 -220 -46 -343 -221 -342 -486 1 -228 77 -385 219 -455 44
-22 64 -25 155 -25 97 0 110 2 170 31 36 17 81 45 100 61 19 17 45 35 58 42
22 12 22 11 22 -49 l0 -60 95 0 95 0 0 568 c0 312 -5 599 -10 638 -26 201
-125 306 -316 334 -78 11 -96 11 -175 -1z m160 -759 c28 -5 74 -19 101 -31
l50 -21 0 -228 0 -228 -47 -41 c-76 -66 -143 -94 -233 -99 -43 -2 -90 -2 -105
2 -40 10 -100 71 -126 129 -22 47 -24 66 -24 197 0 141 1 147 30 205 32 64 59
88 121 110 46 17 160 19 233 5z"/>
<path d="M19080 2777 c-118 -27 -212 -100 -267 -207 -26 -51 -28 -64 -28 -165
1 -97 4 -117 28 -168 41 -90 122 -167 302 -285 236 -156 284 -211 293 -334 6
-87 -3 -130 -35 -168 -45 -54 -97 -74 -193 -74 -107 -1 -148 19 -241 114 l-65
68 -64 -57 -63 -57 62 -66 c111 -119 217 -168 361 -168 234 0 402 149 417 369
10 144 -40 264 -152 370 -34 31 -133 104 -222 163 -227 151 -258 193 -251 333
5 114 54 163 172 172 95 8 157 -16 229 -89 32 -32 62 -58 65 -58 4 0 34 25 67
54 l60 53 -40 48 c-99 121 -285 186 -435 152z"/>
<path d="M20792 2779 c-115 -20 -236 -112 -284 -216 -33 -70 -32 -234 1 -316
37 -93 120 -174 304 -294 162 -106 242 -174 272 -234 20 -38 31 -148 21 -203
-9 -45 -47 -91 -100 -118 -32 -18 -59 -22 -126 -22 -107 -1 -148 19 -241 115
l-66 68 -63 -58 -63 -57 62 -67 c109 -116 219 -167 362 -167 233 0 401 149
416 369 4 53 0 95 -11 141 -36 139 -110 221 -329 368 -264 176 -292 211 -286
352 3 60 9 85 25 107 31 43 99 73 164 73 88 0 147 -25 213 -92 32 -32 62 -58
65 -58 4 0 34 25 67 54 l60 53 -39 47 c-96 118 -271 182 -424 155z"/>
<path d="M13492 2168 c4 -564 5 -586 26 -663 39 -139 100 -218 209 -268 40
-18 65 -22 158 -22 99 0 115 3 165 27 30 15 80 48 110 74 l55 47 3 -62 3 -61
94 0 95 0 0 755 0 755 -95 0 -95 0 0 -606 0 -605 -50 -53 c-27 -29 -71 -64
-97 -78 -126 -68 -285 -38 -343 63 -46 83 -50 137 -50 727 l0 552 -96 0 -95 0
3 -582z"/>
<path d="M18340 1995 l0 -755 90 0 90 0 0 755 0 755 -90 0 -90 0 0 -755z"/>
<path d="M6180 1920 c-8 -5 -12 -12 -9 -15 4 -3 12 1 19 10 14 17 11 19 -10 5z"/>
<path d="M6223 1866 c0 -8 5 -14 11 -13 6 1 10 -4 8 -11 -1 -8 2 -11 8 -7 8 5
6 13 -6 26 -21 23 -21 23 -21 5z"/>
<path d="M6290 1806 c0 -2 7 -7 16 -10 8 -3 12 -2 9 4 -6 10 -25 14 -25 6z"/>
<path d="M7320 1479 c0 -5 5 -7 10 -4 6 3 10 8 10 11 0 2 -4 4 -10 4 -5 0 -10
-5 -10 -11z"/>
<path d="M7339 1463 c-13 -16 -12 -17 4 -4 16 13 21 21 13 21 -2 0 -10 -8 -17
-17z"/>
<path d="M7280 1443 c0 -6 8 -17 18 -24 16 -13 16 -13 2 6 -8 11 -16 22 -17
24 -2 2 -3 0 -3 -6z"/>
<path d="M7159 1323 c-13 -16 -12 -17 4 -4 16 13 21 21 13 21 -2 0 -10 -8 -17
-17z"/>
<path d="M7179 1303 c-13 -17 -13 -17 6 -3 11 8 22 16 24 17 2 2 0 3 -6 3 -6
0 -17 -8 -24 -17z"/>
<path d="M5627 1239 c7 -7 15 -10 18 -7 3 3 -2 9 -12 12 -14 6 -15 5 -6 -5z"/>
</g>
</svg>
