<?xml version="1.0" standalone="yes"?>
<svg xmlns="http://www.w3.org/2000/svg" width="494" height="323">
<path style="fill:#424242; stroke:none;" d="M258 20L256.5 21L255.944 21.25L254 22.4445L252.083 23.8611L251.222 24.6389L250.417 25.3889L249.083 27.0833L248.083 29L247.333 31L246.972 32L246.611 33L245.75 35L245.25 36L244.389 38L243.611 40L242.806 42L242.389 43L241.694 45L241.194 47L241 48L240.528 50L240.167 51L239.472 53L239.25 54L239.083 55L238.917 57L238.778 58L238.389 60L238.056 62L237.944 63L237.611 65L237.389 66L237.083 68L237.028 69L236.972 71L236.917 72L236.611 74L236.389 75L236.083 77L236.028 78L235.972 80L235.917 81L235.611 83L235.389 84L235.083 86L235.028 87L234.917 89L234.611 91L234.389 92L234.083 94L234.028 95L234 96L234 98L233.917 100L233.667 102L233.528 103L233.389 104L233.194 106L233.139 107L233.056 108L233.028 109L233 110L233 111L233 113L233 114L232.917 116L232.778 117L232.611 118L232.278 120L232.194 122L232.222 123L232.139 125L232.056 126L232 128L232 130L232 135L232 140L232 141L231.972 143L231.917 144L231.611 146L231.389 147L231.083 149L231.028 150L231 152L231 154L231 161L231 163L231 164L230.917 166L230.694 168L230.583 169L230.528 170L230.417 172L230.194 174L230.083 175L230 177L230 178L230 180L230 187L231.167 186.639L231.417 186.278L231.944 185.667L232.611 183.972L233.139 182L233.389 181L233.694 180L234.306 178L234.611 177L234.861 176L235.361 174L235.639 173L235.861 172L236.139 171L236.611 169L236.806 168L237.194 166L237.389 165L237.611 164L237.944 162L238.056 161L238.389 159L238.639 158L238.861 157L239.139 156L239.611 154L239.806 153L240.194 151L240.389 150L240.861 148L241.139 147L241.361 146L241.611 145L241.778 144.056L241.972 142.5L242 141L240.861 141.778L240.667 142.306L240.278 143.111L239.944 145L239.583 147L239 149L238.417 151L238.222 152L238.083 153L237.917 155L237.583 157L237.306 158L236.694 160L236.389 161L235.861 163L235.667 164L235.444 164.944L235.472 165.944L235.361 166.5L236 168L234.861 168.778L234.639 169.306L234.194 170.111L233.889 171.028L233.389 172.944L233.222 173.944L233.083 174.5L233 176L232.278 174.5L232.25 173.944L232.056 172.944L232.028 172L232 171L232 170L232 167L232 165L232 164L232.028 162L232.083 161L232.389 159L232.611 158L232.889 156L232.861 154.083L232.833 153.222L232.778 152.389L232.861 150.778L232.944 149.917L233 148L233 146L233 143L233 137L233 136L233.028 134L233.083 133L233.389 131L233.611 130L233.917 128L233.972 127L234 125L234 123L234 119L234 117L234.028 116L234.083 115L234.389 113L234.722 111.028L234.806 109.222L234.778 108.389L234.861 106.778L234.944 105.917L234.972 104.972L235.028 103L235.083 102L235.389 100L235.611 99L235.917 97L236 95L236 93L236 92L236.028 90L236.083 89L236.389 87L236.611 86L236.917 84L236.972 83L237 82L237.028 80L237.083 79L237.389 77L237.778 75L237.917 74L238.028 72L238.083 71L238.222 70L238.611 68L238.806 67L239.194 65L239.389 64L239.611 63L239.917 61L240.083 59L240.417 57L240.694 56L241.333 54L242 52L242.306 51L242.611 50L242.861 49L243.389 47L243.694 46L244.333 44L245.083 42L245.528 41L246.472 39L246.944 38L247.833 36L248.278 35L248.833 34L249.389 33L250.667 31L251.333 30L252.583 28.0555L253.111 27.0555L253.472 26.5L254 25L261 25L261.528 26.4167L261.889 26.8333L262.417 27.6667L263.611 29.2222L264.806 31.0278L265.361 32L265.944 33L266.917 35L267.306 36L267.667 37L268 38L268.583 40L268.944 42L269.056 43L269.222 44L269.389 45L269.611 46L269.889 48L269.889 49L269.611 51L269.389 52L269 54L268.806 55L268.583 56L268.306 57L267.722 59L267.472 59.9445L267.472 60.9445L267.361 61.5L268 63L266.778 63.3611L266.417 63.7222L265.278 65.1111L264.833 66.0278L263.944 68L262.917 70L262.278 71L260.861 73L260.167 74L259.444 75L258.833 76L257.528 78L256.75 79L255.028 80.9444L254.056 81.9444L252 84L252.083 82.5L252.222 81.9444L252.389 80.9444L252.611 80L252.944 78L253.056 77L253.389 75L253.611 74L254 72L254.472 70L255.139 68L255.472 67.0556L255.5 66.0555L255.639 65.5L255 64L254.028 64.7778L253.861 65.3055L253.417 66.1111L253.167 67.0278L252.861 68L252.389 70L252.056 72L251.944 73L251.611 75L251.361 76L251.139 77L250.861 78L250.389 80L250.222 81L250.056 82L249.694 84L249 85.9444L248.611 86.9444L248.333 87.5L248 89L245 89L244.222 90.5L243.694 91.0278L242.889 91.9722L242 92.7778L240.25 94.3889L239.5 95.2222L238.944 96.0833L238.25 97.9444L238.083 98.5L238 100L239.833 101.361L240.667 101.972L242.222 102.944L243.944 103.889L245.528 104.944L245.917 105.306L247 106L246.278 107.5L246.222 108.056L245.972 109.056L245.611 111L245.389 112L245.194 113L244.806 115L244.611 116L244.389 117L244.139 119L244.111 120.889L243.944 121.694L243.889 122.222L243 123L243.333 124.5L243.389 126.056L243.111 128L242.639 130L242.361 131L242.139 132L241.639 134L241.389 135L241.111 136.972L241.278 138.667L241.861 139.639L243 140L242.917 138.5L242.778 138L242.583 137L242 135L244 135L243.833 133.167L243.778 132.333L243.944 130.778L244.167 129.917L244.611 128L244.806 127L245.194 125L245.611 123L245.917 121L246.028 119L246.083 118L246.222 117L246.611 115L246.944 113L247.056 112L247.389 110L247.778 108.056L247.917 107.5L248 106L249.5 107.472L251.028 108.833L252.778 110.306L253.611 111L254.361 111.694L255.139 112.389L255.861 113.139L256.611 113.861L257.306 114.639L258.694 116.139L260.139 117.639L260.833 118.389L261.556 119.222L262.75 121.028L263.222 122L263.778 123L264.222 124L265.222 126L265.75 126.944L266.167 127.944L266.5 128.5L267 130L265.528 130.694L265.028 131.083L263.389 132.389L262.611 133.111L260.972 134.306L260.472 134.639L259 135L258.222 136.472L257.722 136.972L256.972 137.833L255.417 139.306L254.694 140L253.306 141.389L252.611 142.139L251.861 142.861L250.389 144.389L249 146.083L247.583 148L246 150L245.222 151L244.472 152L243.278 154L242.389 156L241.694 158L241.417 159L241.194 160L240.806 162L240.389 164L240.222 165L240.083 166L240 168L240 169L240.083 171L240.417 173L241 175L241.333 176L241.667 177L242.417 179L243.417 181L244.611 183L245.194 183.972L246.472 185.694L247.25 186.389L249.028 187.472L249.972 187.917L251.667 188.583L252.278 188.944L252.639 189.083L253 190L255 189L255 188L256.083 189.139L257.278 189.722L259.028 189.972L259.972 189.972L261.667 189.722L262.278 189.333L262.639 189.139L263 188L264.5 188.389L265.056 188.139L266 187.944L267.5 187.333L269 187L269.694 185.5L270.083 184.944L270.694 183.944L271.333 183L272.583 181L273.583 179L273.972 178L274.611 176L274.861 175L275.139 174L275.611 172L275.917 170L276.111 168L276.722 166L278.111 164L279.028 163L280.917 161L281.778 160L283.361 158L284.139 157L285.611 155L286.306 154L287.611 152.056L287.944 151.5L289 150L289.583 152.056L289.806 153.056L290 154L290.5 155.917L290.944 156.75L291.5 157.5L293.083 158.5L295 158.833L296.972 158.583L298.778 157.917L300.389 156.917L301.222 156.278L302.083 155.583L303.917 153.917L305.611 152.083L306.361 151.222L307.861 149.611L309.306 147.917L310.583 146L311.083 145.056L311.722 143.5L312 142L312.722 143.5L312.75 144.056L313.056 146L313.389 148L313.611 149L313.806 150L314.278 152L315.028 153.944L315.333 154.5L316 156L317.75 156.667L318.278 156.861L319 158L321 158L321 156L323.056 155.889L324.056 155.667L325 155.306L326.944 154.167L327.944 153.444L330 152L329.75 153.5L329.611 154.056L329.278 155.944L329.333 156.944L329.306 157.5L330 159L330.75 158.222L330.833 157.694L331.167 156.889L331.389 155.972L332 154L332.333 153L333 151L333.306 150L333.611 149L334.139 147L334.361 146L334.639 145L334.861 144L335.139 143L335.389 142L336 140L336.333 139L337 137L337.306 136L337.583 135L337.917 133.056L338 131.5L338 130L338.75 131.5L338.833 132.056L339.167 133.056L339.361 134L339.639 135L339.889 136L340.611 138L341.639 140L342.139 140.944L342.75 141.944L343 142.5L344 144L348 144L348.083 146.056L348.417 148L349.028 149.944L349.194 150.5L350 152L352 152L352.75 150.5L353.222 149.944L353.861 148.944L354.556 148L355.722 146L356.167 145L356.611 144L356.972 143L357.583 141.056L357.917 139.5L358 138L358.889 139.417L358.917 139.833L359.194 140.667L359.222 141.389L359.361 142.222L359.722 144.028L360.361 145.944L360.833 146.944L361.028 147.5L362 149L368 149L368.778 147.778L369.278 147.417L370.806 146.167L371.611 145.528L373.222 143.944L374.056 143.056L374.944 142.222L375.778 141.389L377.306 139.778L378.583 138.028L379.111 137.056L379.472 136.5L380 135L380.833 136.5L381.056 137.056L382 138.944L382.333 139.5L383 141L384.5 141L386.056 140.889L388 140.306L388.972 139.75L389.917 139.111L391.611 137.611L392.389 136.778L394.028 135.028L396 133L395.417 135.056L395.139 136.944L395.278 138.5L396 140L396.75 139.222L396.833 138.694L397.167 137.889L397.389 136.972L398 135L398.333 134L399.333 131L400.333 128L400.667 127L401.417 125L401.889 124L402.944 122L403.917 120L404.667 118L405 117L405.583 115.056L405.778 114.056L405.917 113.5L406 112L407.222 112.778L407.556 113.306L408.5 115.028L408.917 117L409.083 119L409.222 120L409.611 122L409.917 124L410 126L410 128L410.083 130L410.25 131L410.5 132L411.5 133.889L413.083 135.389L414.917 136.611L415.722 137.25L416.528 138.056L418 140L419.25 139.667L419.639 139.361L420.361 138.889L421.667 137.583L422.333 136.778L423.667 134.972L424.306 134L424.917 133L425.944 131.056L426.167 130.5L427 129L427.528 130.417L427.917 130.833L428.444 131.611L429.194 132.333L431 134L433 133L433.778 134.139L434.306 134.333L435.111 134.75L436.028 134.972L438 135.417L440 135.972L440.944 136.25L441.944 136.333L442.5 136.472L444 136L444.361 137.167L444.722 137.417L445.333 137.944L446.111 138.306L448 139.083L450 140L452 141.028L453 141.583L454.944 142.722L455.944 143.056L456.5 143.361L458 143L458.361 144.472L459.306 145.833L460.028 146.583L460.806 147.306L462.389 148.611L463.194 149.194L464 149.806L465.611 151.028L467.222 152.417L468.083 153.194L469.972 154.806L470.917 155.583L472.611 156.972L473.389 157.611L475.083 158.75L476.028 159.222L478 160.139L479 160.528L481 160.917L483 160.972L484 160.889L485.889 160.278L487.278 158.889L487.667 158.028L487.972 156.5L488 155L486.611 155.361L485.667 156.278L485.361 156.611L485 158L483.528 157.889L482.25 157.333L481.778 157.139L481 156L479.75 156.167L478.556 156.083L477.778 155.889L476.917 155.556L475 154.5L473 152.944L472 152.056L470 150.472L469 149.833L467 148.528L465 146.917L463 145.083L461.083 143.417L460.222 142.722L459.389 142.083L457.778 141.056L456.944 140.611L455.222 139.611L453.611 138.556L452.778 138.056L451.917 137.611L450 136.611L448 135.611L446 134.861L445 134.556L443 133.75L442 133.25L440 132.444L438 131.861L437 131.611C435.988 131.316 434.987 130.981 434 130.611L433 130.167L431.083 129.139L429.528 127.75L429.028 126.917L428.667 125L428.778 124L429.306 122L429.611 121L430.139 119L430.361 118L430.611 117L430.917 115.056L430.972 114.056L431 112L429.833 112.361L429.583 112.722L428.639 114.111L427.833 116L427.472 117L427.056 119L426.944 120L426.583 122L426.306 123L426 124L425.306 126L424.917 127L423.917 129L422.667 131L421.306 132.917L420.639 133.722L419.417 134.917L418 136L418.778 134.5L419.278 133.944L420.028 132.944L421.528 131L422.722 129L423.167 128L423.611 127L423.972 126L424.611 124L424.861 123L425.361 121L425.611 120L425.806 119L426.194 117L426.389 116L426.611 115L426.917 113L426.972 112L427 110L427 109.056L427 106L425.528 106.111L424.194 106.722L423.472 107.333L422.194 109.028L421.083 111L420.611 112L420.222 113L419.639 115L419.389 116L419.194 117L418.806 119L418.611 120L418.139 122L417.861 123L417.639 124L417.389 125L417.083 127L417.028 128L417 129.944L417 132L413 132L412 131L411.972 129.5L411.778 127.944L411.389 126L411.083 124L411.028 123L410.972 121L410.917 120L410.611 118L410.389 117L410.056 115L409.944 114L409.583 112L409.083 110.083L408.833 108.389L408.917 107.611L409.333 105.917L409.583 104.972L409.806 104L410.222 102L410.472 101L411.167 99L411.556 98L412.139 96L412.389 95L412.694 94L413.306 92L413.583 91L413.944 89L414.056 88L414.389 86L414.611 85L414.917 83L414.972 82L415.083 80L415.361 78L415.528 77L415.556 76.0556L415.5 75.0556L415 73L413.583 73.7778L413.194 74.3056L412.417 75.1111L411.25 77L410.25 79L409.861 80L409.444 81L409.167 82L408.861 83L408.361 85L408.139 86L407.611 88L407 90L406.417 92L406 94L405.806 95L405.611 96L405.139 98L404.861 99L404.639 100L404.361 101L404.139 102L403.639 104L403.361 105L403.139 106L402.861 107L402.611 108L402 110L401.667 111L401 113L400.417 114.944L400.222 115.944L400.083 116.5L400 118L399 117L399 115L397.333 115.194L395.833 115.139L394.472 115.028L393 115L393 114L394 112L392.5 111.778L391.972 111.667L390.278 111.389L389.472 111.278L388 111L388.583 108.944L388.778 107.944L388.917 107L389.083 105L389.222 104L389.611 102L389.917 100L389.972 99L390 98L390 97L390.083 95L390.389 93L390.583 92L390.722 91.0278L390.806 89.2222L390.75 88.3889L390.75 87.6111L390.556 85.9722L390.25 84.5L390 83L389.167 83.75L388.944 84.2222L388.444 84.8889L388 85.6389L387.056 87.2222L386.111 89.0278L385.083 91L384.611 92L384.222 93L383.639 95L383.361 96L383.139 97L382.639 99L382.389 100L382.083 102L381.917 104L381.611 105.944L381.25 107.5L381 109L378.944 108.444L377.944 108.278L376 108.194L375 108.222L374 108.167L373 108.139L371 107.944L369.056 107.583L367 107L365.5 107.972L364.972 108.167L363.333 109.083L362.722 109.583L362.111 110.611L362 112L381 112L380.75 113.5L380.389 115.056L380.083 117L380.028 118L380 120L380 122L380 125L380 126L379.972 128L379.694 130L378.889 132L378.306 133L377.667 134L376.333 135.917L375.694 136.778L374.639 138.333L374.111 139.583L374 141L372.5 141.111L370.944 141.722L369 143.083L367 144.667L366 145.278L365.056 145.667L363.5 145.972L362 146L361.917 144.5L361.778 143.944L361.611 142.944L361.389 142L361.083 140L361.028 139L361 137L361 136L361.083 134L361.389 132L361.611 131L361.917 129L361.972 128L362 126L362 125L362 123L361.917 121L361.778 120L361.361 118L361.139 117L360.861 116.056L360.611 115.056L360 113L358 113L357.306 114.5L356.944 115.056L355.833 117L355.278 118L354.833 119L354.389 120L353.611 122L352.806 124L352.389 125L351.694 127L351.139 129L350.861 130L350.389 132L350 134L349.611 136L349.389 137L349.083 138.944L349 141L344 141L343.667 139.5L343.361 138.944L342.917 137.944L342.389 137L341.5 135L341.25 134L341.028 132L340.972 131L340.917 130L340.611 128L340.222 126L340.083 125L339.917 123L339.778 122L339.389 120.056L339.25 119.5L339 118L338.028 118.778L337.861 119.306L337.444 120.111L337.222 121.028L336.806 123L336.389 125L336.056 127L335.778 129L335.389 131L335.194 132L334.806 134L334.611 135L334.194 137L333.806 139L333.583 140L332.972 142L332.083 144L331.5 145L329.917 147L328 148.972L326 150.75L324 152.056L323 152.5L321 152.917L319.056 153L317 153L316 152L315.972 150.5L315.778 148.944L315.389 147L315.083 145L315.028 144L315 142L315 140L315 138L315.028 137L315.083 136L315.389 134L315.778 132L315.917 131L316.083 129L316.222 128L316.611 126L316.917 124L316.944 123.028L316.722 121.333L316.333 120.722L316.139 120.361L315 120L315.194 121.667L315.139 123.222L315.028 124.083L314.944 125.028L314.611 127L314.389 128L314.056 130L313.944 131L313.528 133L313.139 134L312.75 135L312.25 136L311.389 138L311.028 139L310.306 141L309.889 142L308.722 144L307.194 146L306.389 146.972L304.861 148.778L304.139 149.583L302.611 150.972L301 152.194L300.194 152.806L299.389 153.361L298.611 153.944L297 154.833L295.389 155.194L293.833 155.139L293.417 155.056L292 155L291.75 153.5L291.389 151.944L291.083 150L291.028 149L291 147L291.111 145L291.611 143L292.389 141L292.722 140L292.972 139L293.417 137L293.694 136L294 135L294.583 133L294.917 131L294.972 130L295 129L295 128L295.083 126L295.389 124L295.583 123L295.694 121.056L295.556 120.056L295 118L294.194 118.778L294.028 119.306L293.667 120.111L293.194 122L292.806 124L292.611 125L292.139 127L291.861 128L291.639 129L291.139 131L290.861 132L290.639 133L290.389 134L290.083 136L290 138L289.972 139L289.806 141L289.528 142.917L289.361 143.778L289.222 144.611L288.639 146.222L287.556 148.028L286.833 149L285.389 150.917L284 152.611L283.333 153.389L282 155.056L281.333 155.944L280.028 157.611L278.889 159.167L278.528 159.583L278 161L276.861 159.5L276.278 157.944L276.028 156L276 155L276 153L275.944 151L275.861 149L275.889 148L276.472 146L276.972 145L277.944 143L278.389 142L279.417 140L280.667 138L281.333 137L282 136L283.333 134L285.333 131L286.667 129L287.333 128L288.583 126L289.5 124L289.75 123.056L289.972 121.5L290 120L288.5 120.083L287.944 120.25L286.972 120.444L286.083 120.75L284.417 121.194L283.694 121.278L283.056 121.306L282.389 121.25L281 121L280.222 122.139L279.722 122.361L279 122.833L277.722 123.639L277.111 124.611L277 126L276 124L275 124L273.917 124.667L273.528 125L271.917 125.944L270.056 126.833L269.5 127.028L268 128L267.722 126.5L267.139 124.944L266.722 124L265.611 122L264.972 121L263.667 119L262.306 117L261.611 116L260.139 114.083L258.639 112.389L257.861 111.639L256.361 110.167L255.611 109.444L254.778 108.833L252.972 107.528L251.083 105.944L249.472 104.306L249.083 103.778L248 103L248.75 101.5L248.833 100.944L249.139 99.9444L249.306 99.0278L249.611 97.2222L249.806 95.6111L249.889 94.7778L250.194 92.9722L250.389 92L250.778 90.0556L250.972 88.5L251 87L252.472 86.4722L253.833 85.5278L255.306 84.1389L256.694 82.6111L257.417 81.7778L258.222 80.9167L259.056 79.9722L260.694 78L261.389 77L262.528 75L263.056 74L264.167 72L264.75 71L265.778 69L266.222 68L266.778 67L267.222 66L267.75 65L268.528 63L268.778 62L269.194 60L269.389 59L269.861 57L270.139 56L270.361 55L270.611 54L270.917 52L270.972 51L271 50L271 48L271 46L270.972 44L270.917 43L270.611 41L270.361 40L269.861 38L269.611 37L269 35L268.306 33L267.889 32L266.778 30L266.139 29L265.444 28L264.194 26L262.972 24.0833L261.583 22.4167L260.833 21.7222L259.472 20.6945L258 20M259 22L258 23L259 22M414 78L414 80.0556L413.972 81.0556L413.917 82L413.611 84L413.139 86L412.861 87L412.639 88L412.361 89L412.139 90L411.861 91L411.639 92L411.361 93L411.139 94L410.556 96L410.167 97L409.472 99L409.222 100L408.778 102L408.528 103L407.806 105L407.389 106L406.583 108L406.111 109L405.056 110.944L404.694 111.5L404 113L403.361 112.222L403.472 111.694L403.472 110.889L403.722 109.972L404.306 108L404.806 106L405.194 104L405.694 102L406.306 100L406.583 99L406.806 98L407.194 96L407.417 95L407.694 94L408.306 92L408.611 91L409.139 89L409.389 88L410 86L410.667 84L411.389 82L412.222 80.1111L412.778 79.3056L413 78.7778L414 78M250 89L249.75 90.5L249.583 91.0556L249.306 92.0556L249 93L248.417 95L248 97L247.611 99L247.222 100.944L247.083 101.5L247 103L245.917 102.306L245.528 101.944L243.917 100.806L242.056 99.5833L241.5 99.2222L240 98L240.694 96.9444L241.083 96.6111L241.694 95.9444L242.333 95.3333L243 94.6667L244.417 93.3333L246.056 92L246.944 91.3333L248.528 90.0833L248.917 89.6944L250 89M389 89L389 92.0556L389 93L388.972 95L388.917 96L388.611 98L388.222 100L388.083 101L387.972 103L387.917 104L387.611 106L387.389 106.944L387.222 107.944L387.083 108.5L387 110L385.556 109.583L384.444 109.25L383 109L383 106.944L383.028 105.944L383.083 105L383.389 103L383.861 101L384.139 100L384.389 99L384.694 98L385.333 96L386.028 94L386.389 93L387.222 91.1111L387.778 90.3056L388 89.7778L389 89M186 91L186.083 92.5L186.222 93.0556L186.389 94.0556L186.611 95L186.917 97L186.972 98L187 99L187.028 101L187.083 102L187.389 104L187.611 105L187.917 107L187.972 108L188 110L188 111L188 113L187.972 114L187.917 115L187.611 117L187.389 118L187.083 120L187.028 121L187 123L187 124L187 126L186.917 128L186.611 130L186.389 131L186.056 133L185.944 134L185.611 136L185.389 137L185.194 138L184.806 140L184.611 141L184.389 142L184 144L183.583 146L183.306 147L182.611 149L182.194 150L181.833 151L181.472 152L181.25 153L181.056 154L180.694 156L180.389 157L179.611 159L179.278 160L178.806 162L178.583 163L178.306 164L177.694 166L177.417 167L177.083 168.944L177.028 169.944L177 172L178.417 171.222L178.833 170.694L179.667 169.917L180.389 169.083L182.083 167.639L183.028 167.111L184 166.694L186 166.083L188 165.722L189 165.611L191 165.333L193 165.083L195 165L195.972 164.972L196.889 164.889L197.667 164.722L198.639 164.139L199 163L197.75 163.194L196.639 163.306L195.306 163.278L193.778 163.139L192.917 163.056L191.972 163.028L191 163L190 163L188 163L186 163.028L185 163.083L183 163.472L181.056 164.194L180.5 164.5L179 165L179.972 163.5L180.167 162.944L180.639 161.944L181.306 160L181.861 158L182.139 157L182.389 156L182.694 155L183 154L183.583 152L183.806 151L184.194 149L184.417 148L184.694 147L185.306 145L185.583 144L185.944 142L186.056 141L186.389 139L186.611 138L186.944 136L187.056 135L187.389 133L187.611 132L187.917 130L187.972 129L188.083 127L188.389 125L188.611 124L188.917 122L188.972 121L189 119L189 117L189 110L189 104L189 102L188.917 100L188.611 98L188.389 97L188 95L187.778 94.0278L187.556 93.1111L187.139 92.3056L186.972 91.7778L186 91M426 111L425.417 113.056L425.222 114.056L425.056 115L424.944 116L424.611 118L424.361 119L423.861 121L423.611 122L422.889 124L422.389 125L421.167 126.944L420.444 127.944L419 130L418.361 129.222L418.472 128.694L418.444 127.889L418.639 126.972L418.806 126L419.194 124L419.611 122L419.806 121L420.222 119L420.472 118L421.25 116L421.75 115L422.139 114.056L422.722 112.5L423 111L426 111M385 112L385.333 113.5L385.389 115.056L385.111 117L384.639 119L384.361 120L384.139 121L383.556 123L382.806 124.944L382.5 125.5L382 127L381.278 126.222L381.25 125.694L381.056 124.889L381 123L381.028 121L381.083 120L381.389 118L381.611 117L382.028 115.083L382.306 114.25L382.667 113.5L383.278 112.917L385 112M391 112L390 114L390 115L391.5 115.111L393.056 115.611L395 116.472L395.944 116.917L397.5 117.556L399 118L399 119.5L398.917 121.056L398.583 123L398.278 124L397.917 125L396.917 126.917L396.306 127.778L395.667 128.611L394.389 130.222L393.167 132L392.528 132.917L391 134.583L390.194 135.306L388.611 136.583L386.972 137.5L386.028 137.75L384 138L382.861 135.944L382.444 134.944L382.167 133L382.389 131L382.889 129L383.583 127L384.028 126L384.917 124L385.278 123L385.861 121L386.139 120L386.611 118L386.917 116.056L387 114L388.444 113.333L389.556 112.667L391 112M34 115L32.5 116.139L31.9444 116.361L30.9444 116.806L29.0556 117.389L27 118L26.6667 119.417L25.8889 120.639L24.6111 122L23.1389 123.417L21.6944 125.083L21.0278 126.028L19.8056 128L19.1944 129L18.0556 131L17.5278 132L16.4722 134L15.3889 136L14.3889 138L13.9444 139L13.4722 140L12.5833 142L11.8889 144L11.3056 146L11 147L10.4167 149L10.2222 150L10 152L9.77778 154L9.38889 156L9.25 157L9.16667 158L9.38889 160L9.61111 161L9.91667 163L9.97222 164L10.0278 166L10.2222 168L10.6389 170L10.8611 171L11.1389 172L11.6389 174L11.8611 175L12.1667 176L12.4444 177L12.8611 178L13.75 180L14.6389 182L15.0556 183L16.0833 185L16.6944 186L18 187.917L18.6944 188.75L19.4167 189.528L20.1944 190.167L21.7778 191.472L23.1667 193L24.4444 194.611L25.8611 196.139L26.6389 196.833L27.3889 197.556L28.2222 198.167L29.0833 198.806L31 199.944L33 200.917L34 201.306L36 202.028L37 202.389L39 203.167L40 203.556L41 203.833L42.9722 204.306L44.7778 204.583L45.5556 204.639L46.3333 204.556L46.75 204.556L48 204L48.5833 206.056L48.75 207.056L48.8333 208L48.6111 210L48.2222 212L48.0833 213L47.9167 215L47.6111 217L47.3611 218L46.8611 220L46.6389 221L46.3889 222L46.0556 224L45.9444 225L45.6111 227L45.3889 228L45.0556 230L44.9444 231L44.6111 233L44.1944 235L43.8056 237L43.6111 238L43.3889 239L43.1944 240L42.8056 242L42.6111 243L42.3611 244L42.1389 245L41.6944 247L41.3889 249L41.1111 251L40.9167 252L40.4167 254L40.2222 255L39.9444 257L39.6111 259L39.3611 260L38.8611 262L38.6389 263L38.3889 264L38.0833 266L37.9167 268L37.6111 270L37.2222 272L37.0833 273L36.9167 275L36.7778 276L36.3889 278L36.0833 280L36.0278 281L36 283L35.9722 285L35.9167 286L35.6111 288L35.3889 289L35.0833 291L35.0278 292L35 294L35 295L35 298L35 301L35 303L35.0278 305L35.0833 306L35.3889 308L35.6111 309L36 311L36.2222 312L36.4722 313L37.1944 314.944L37.5 315.5L38 317L39.4722 316.889L40.8056 316.278L41.5278 315.667L42.8056 313.972L43.3611 313L43.9444 312L44.9167 310L45.5833 308L45.8056 307L46.1944 305L46.4167 304L46.6944 303L47 302L47.6667 300L48 299L48.5833 297L48.7778 296L48.9167 295L49.0833 293L49.2222 292L49.4167 291L50 289L50.5833 287L50.7778 286L50.9167 285L51.0278 283L51.0833 282L51.3889 280L51.6111 279L51.9167 277L51.9722 276L52 275L52.0278 273L52.0833 272L52.3889 270L52.6111 269L52.9167 267L52.9722 266L53 264L53 263L53 260L53 259L53.0278 257L53.0833 256L53.3889 254L53.6111 253L53.9167 251L53.9722 250L54 248L54 246L54 239L54 223L54 221L54 220L53.9722 219.028L53.7222 217.333L53.1389 216.361L52 216L52.1667 217.417L52.2222 218.667L52.1944 219.389L52.1944 221L52.1944 221.806L52.2222 223.389L52.2778 224.222L52.2222 225.083L52.2222 226.972L52.2778 227.917L52.2222 228.778L52.25 229.611L52.2222 231.222L52.4167 233.028L52.6111 234L52.9167 236L52.9722 237L53 239L53 241L53 244L52.9722 246L52.9167 247L52.6111 249L52.3889 250L52.0833 252L52.0278 253L52 255L52 256L52 259L52 261L51.9722 263L51.9167 264L51.6111 266L51.3889 267L51.0833 269L51.0278 270L50.9722 272L50.9167 273L50.6111 275L50.3889 276L50.0833 278L49.9722 280L49.9167 281L49.6111 283L49.3889 284L49 286L48.8056 287L48.6111 288L48.1944 290L47.8056 292L47.6111 293L47.1389 295L46.8611 296L46.3611 298L46.1389 299L45.8611 300L45.3611 302L45.1389 303L44.8333 304L44.5556 305L44.1667 306L43.8056 307L42.9167 309L42.3611 310L40.9444 311.944L40.4722 312.5L39 314L38.7222 312.5L38.5278 311.944L37.8333 310L37.4722 309L37.2222 308L37 307L36.6111 305L36.3889 304L36.0833 302L36.0278 301L36 299L36.0833 297L36.1944 296L36.4167 294L36.5278 292L36.5833 291L36.6944 290L36.9167 288L37.0833 286L37.3611 284L37.5556 283.028L37.75 281.222L37.75 280.389L37.9444 278.778L38.1667 277.917L38.3611 276.972L38.7778 275L38.9167 274L39.0833 272L39.2222 271L39.6111 269L39.9167 267L40.0833 265L40.3889 263L40.8056 261L41.1944 259L41.3889 258L41.8611 256L42.1389 255L42.6111 253L42.8056 252L43.1944 250L43.3611 249L43.5556 248.028L43.75 246.222L43.75 245.389L43.9444 243.778L44.1667 242.917L44.3611 241.972L44.8611 240L45.3611 238L45.6111 237L45.9444 235L46.0556 234L46.3889 232L46.6111 231L46.9167 229L47.0833 227L47.3889 225L47.8056 223L48.1944 221L48.3889 220L48.8611 218L49.1389 217L49.6111 215L49.9444 213L50.0556 212L50.3889 210L50.6111 209L50.9167 207.056L51 205L51.7222 206.5L51.75 207.056L51.9444 208.056L51.9722 209L52 210L52 211.944L52 215L54 215L54 212.944L54 211.944L53.9444 210.028L53.8611 209.083L53.7778 207.389L53.8611 205.833L53.9444 205.417L54 204L58 204L58.7778 202.778L59.25 202.444L60.5278 201.528L62 201L62 199L61 199L62.5 198.694L63.0556 198.806L64.9722 198.694L65.9167 198.472L67.5 197.5L68.0833 196.75L68.5833 195.917L69.3333 194L69.6667 193L70.3889 191L71.1667 189L71.5556 188L71.8333 187L72.1389 186L72.3889 185L73.0278 183L73.4167 182L74.4722 180L75.8333 178L76.5556 177L77.75 175L78.25 174L79.3611 172L79.9167 171L80.3889 170L81.1111 168L81.3611 167L81.6111 166L81.9167 164.056L81.9722 163.5L82 162L83 164L83.7222 163.222L83.75 162.694L83.9444 161.889L83.9722 160.972L84 159L84 158.056L84 155L82.8611 155.778L82.6389 156.306L82.1944 157.111L81.6111 159L80.9722 161L80.6111 162L79.75 164L79.25 165L78.3889 167L78 168L77.1111 170L76 172L75.4167 172.944L74.8889 173.944L74.5278 174.5L74 176L73.2778 174.5L73.25 173.944L73.0278 172.944L72.9722 172.028L72.8611 171.083L72.7778 169.389L72.8056 168.611L72.7222 166.917L72.3611 165L72.1389 164L71.8611 163L71.3889 161L71.1944 160L70.8056 158L70.5833 157L69.9444 155.056L69.1667 153.5L68 152L66.5833 152.528L65.4444 153.5L64.5 155.028L64.0833 156.5L64 158L63.2778 156.5L63.1389 154.944L63.3611 153L63.5278 152L63.5556 151.056L63.5 150.056L63 148L62.1944 148.778L62.0278 149.306L61.6667 150.111L61.1944 152L61 153L60.6111 155L60.3889 156L60 158L59.5833 160L59.3056 161L58.6944 163L58.4167 164L58.1111 166L58.0833 166.944L58.2778 168.5L59 170L57.8611 170.361L57.6389 170.722L57.1944 171.333L56.6389 173.028L56.3611 174L56.1389 175L55.6389 177L55.3611 178L55.1389 179L54.6389 181L54.3889 181.944L54.2222 182.944L54.0833 183.5L54 185L53 184L53 183L53 181L53 176L53 162L53 160L53 159L52 158L53 157L52 155L52 153L52 149L52 147L51 146L51 145L51 142L51 140L50 139L50 138L50 136L50 135L49 134L49 133L49 131L48 130L48 128L47 127L47 125L47 124L45 122L45 121L44 120L42 118L41 117L39 117L38 116L39 115L37.5278 115.056L37.0278 115.139L35.4722 115.194L34 115M38 120L39.5 119.556L40.9722 120L42.5278 121.25L43.75 123.028L44.75 125L45.1667 126L45.6111 127L46.3889 129L47.1667 131L47.5278 132L47.7778 133L48.1944 135L48.6111 137L49 139L49.3889 141L49.6111 142L49.9444 144L50.0556 145L50.2222 146L50.3889 147L50.6111 148L50.9167 150L50.9722 151L51 153L51 155L51.0278 156L51.0833 157L51.3889 159L51.6111 160L51.9167 162L51.9722 163L52 165L52 166L52 169L52 182L52 189L52 191L51.9722 193L51.9167 194L51.6111 196L51.3611 197L51.1389 198L50.8611 199L50.6389 199.944L50.25 201.5L50 203L47.9444 202.417L46 202.056L44 201.778L43 201.611L42 201.389L40.0556 201.083L39.0556 201.028L37 201L37 199L35.5 198.972L33.9722 198.75L33.0833 198.5L31.4167 197.583L30.6944 196.972L29.3056 195.667L28.5833 195L27.7778 194.306L25.9722 192.806L24.0833 191.194L23.2222 190.389L22.3889 189.611L20.8611 187.917L19.4444 186L18.8333 185.028L17.6389 183.222L16.5278 181.611L16 180.778L15 178.972L14.0833 177L13.6944 176L13 174L12.4167 172L12.1944 171L11.8056 169L11.6111 168L11.3889 167L11.0833 165L11.0278 164L11 162L11 160L11 158L11 157L11.0278 155L11.0833 154L11.3889 152L11.6389 151L11.8611 150L12.1389 149L12.6389 147L12.8611 146L13.1667 145L13.4444 144L14.25 142L14.7778 141L15.7778 139L16.25 138L16.8333 137L17.9444 135L18.4722 134L19.5278 132L20.0833 131L20.7222 130L22.1944 128L23.8056 126.028L25.3611 124.222L26.1389 123.417L26.8611 122.694L28.3889 121.389L29.9722 120.222L30.7222 119.583L31.2222 119.222L32 118L34.0556 118L35.0278 118.028L35.8889 118.111L36.6667 118.278L37.6389 118.861L38 120M360 118L360.25 119.5L360.389 120.056L360.583 121.056L360.694 123L360.306 125L360 126L359.417 128L359.194 129L358.806 131L358.583 132L358.306 133L357.583 134.972L356.5 136.778L355.75 137.583L354.028 138.889L352.5 139.667L351 140L351.028 137.944L351.083 136.944L351.389 135L351.861 133L352.139 132L352.389 131L352.694 130L353.333 128L354 126L354.694 124L355.083 123L355.972 121.056L356.389 120.056L356.667 119.5L357 118L360 118M406.333 121.667L406.333 122.333L406.667 122.333L406.667 121.667L406.333 121.667M286 124L285.667 125.5L285.361 126.056L284.889 127.056L283.667 129L282.389 131L281.806 132L281.194 133L280.056 135L279.528 136L278.472 138L277.944 139L276.861 140.944L276.25 141.944L276 142.5L275 144L274.25 143.222L274.167 142.694L273.833 141.889L273.639 141.028L273.25 139.5L273 138L272.528 139.5L272.639 140.056L272.667 141.056L272.917 143L273 145L272.972 146L272.694 148L272.389 149L271.528 151L271.056 152L270.194 154L269.833 155L269.472 156L269.083 158L269.028 159L269.028 161L269.083 162L269.389 163.944L269.75 165.5L270 167L275 167L274.417 169.056L274.083 171L273.917 173L273.5 175L272.611 177L272.083 177.944L271.639 178.944L271.333 179.5L271 181L269.25 182.25L268.722 182.611L268 184L266.583 184.333L266.167 184.639L265.333 185.083L264.611 185.583L263 186.361L261.389 186.694L260.611 186.806L258.917 186.944L257.972 186.944L257.028 186.944L255.222 186.806L254.389 186.694L253.611 186.611L252 186.222L250.389 185.472L249.639 185L248.889 184.5L247.694 183.444L247.111 182.389L247 181L245 182L244.722 180.5L244.528 179.944L243.806 178L243.389 177L242.694 175L242.417 174L242.083 172L242 170L242 168L242 166L242 165L242.083 163L242.222 162L242.417 161L242.694 160L243.417 158L244.417 156L245.028 155L246.333 153L247.694 151L248.417 150L250.056 148L251.778 146.083L252.583 145.222L253.306 144.389L254.694 142.861L256.222 141.361L257.083 140.611L259 138.917L261 137.083L262 136.222L263.889 134.667L264.694 133.833L265.222 133.417L266 132L269 132L269.5 133.5L269.806 134.056L270.167 135L270.722 136.5L271 138L271.639 136.5L271.5 135.944L271.5 135L270.972 133.5L270 132L270 131L271 129L272.417 128.667L272.833 128.389L273.667 127.972L274.389 127.528L276.083 126.722L277.028 126.417L277.944 126.222L279.5 126.028L281 126L281 124L286 124M293 135L292 136L293 135M313 140L314 142L312.917 141L312.583 140.667L313 140M355 140L354 141L355 140M351 141L350 142L351 141M354 142L353.75 143.5L353.278 145.056L352.417 146.889L351.75 147.694L351.389 148.222L350 149L350 144L351.444 143.333L352.556 142.667L354 142M119 146L118.75 147.5L118.306 149.056L117.611 151L117.194 152L116.833 153L116.444 154L116.167 155L115.556 157L114.75 159L114.222 160L113.778 161L113.25 162L112.389 164L112.028 165L111.667 166L111.333 167L110.611 169L110.194 170L109.472 171.944L109.083 173.5L109 175L108 173L107.333 173.722L107.5 174.25L108 176L106.861 176.361L106.278 177.333L106.111 178.111L105.972 180L105.917 181L105.528 183L105.167 184L104.806 185L104.028 187L103.389 189L102.778 191L102.417 192L101.583 194L100.861 196L100.556 197L99.8056 199L99.3889 200L98.6667 202L98 204L97.6944 205L97.3889 206L96.8611 208L96.6389 209L96.3889 210L96.0556 212L95.9444 213L95.6111 215L95.3611 216L94.8611 218L94.6389 219L94.3889 220L94.0833 222L93.9167 224L93.6111 226L93.2222 228L93.0833 229L92.9167 231L92.6111 233L92.3889 234L92.0833 236L92.0278 237L91.9167 239L91.7778 240L91.3889 242L91.0833 244L91.0278 245L91 247L90.9722 249L90.7778 251L90.4167 253L90.2778 253.972L90.2222 254.917L90.3056 256.611L90.3889 257.389L90.5278 258.222L90.8056 260.028L90.9167 261L91.0833 263L91.4167 265L92.0278 267L92.3611 267.944L92.8333 268.944L93.0278 269.5L94 271L97 271L97.9722 269.5L98.1667 268.944L98.6389 267.944L98.9722 267L99.6111 265L99.8611 264L100.139 263L100.611 261L101 259L101.389 257L101.611 256L101.917 254L101.972 253L102.083 251L102.389 249L102.611 248L102.944 246L103.222 244L103.611 242.056L103.75 241.5L104 240L102.861 240.361L102.667 240.722L102.278 241.333L101.944 243.028L101.778 244L101.611 245L101.222 247L101.083 248L100.972 250L100.917 251L100.778 252L100.361 254L100.139 255L99.8611 256L99.3889 258L99 260L98.7778 261L98.5278 262L97.8333 264L97.4722 264.944L97.0833 266.5L97 268L94 268L93.9167 266.5L93.5833 264.944L93.3056 264L92.6944 262L92.4167 261L92.0833 259L92.0278 258L92 256L92 252L92 250L92.0278 248L92.0833 247L92.3889 245L92.8056 243L93 242L93.3333 240L93.4722 239L93.6111 238L93.6944 237L93.8056 236L93.9444 234L94.0833 232L94.3889 230L94.6111 229L94.9167 227L94.9722 226L95.0833 224L95.3889 222L95.6389 221L96.1389 219L96.3611 218L96.6389 217L96.8611 216L97.1389 215L97.3611 214L97.6389 213L97.8611 212L98.1389 211L98.3889 210L99 208L99.6667 206L100.028 205L100.389 204L100.806 203L101.528 201L101.778 200L102.222 198L102.472 197L103.194 195L103.611 194L104.333 192.056L104.556 191.5L105 190L105.722 191.5L105.75 192.056L105.944 193.056L105.972 194L106 196L105.972 198L105.917 199L105.611 201L105.389 202L105.083 203.944L105.028 204.944L105 207L107 207L107 193L107 190L107 188L107 187L107.083 185L107.222 184L107.417 183L108 181L108.333 180L109.028 178L109.389 177L110.25 175L110.778 174L111.75 172L112.611 170L112.972 169L113.694 167.028L114.056 166.111L114.583 165.306L114.833 164.778L116 164L115.278 165.5L115.25 166.056L115.056 167.056L115 169L115 170L115.083 172L115.417 174L115.694 175L116.333 176.944L116.556 177.5L117 179L118.472 178.889L119.722 178.333L120.639 177.389L121 176L122.5 176.361L123.056 176.028L124.056 175.611L125.917 173.972L127.583 172L128.306 171L129.611 169L130.167 168L130.75 167L131.75 165L132.139 164.056L132.722 162.5L133 161L133.722 162.5L133.778 163.056L134.028 164.056L134.194 165L134.611 167L134.944 169L135.056 170L135.5 172L136.417 174L137.694 175.917L138.417 176.75L139.222 177.5L141.028 178.5L142 178.75L143 178.917L145 179L147 178.972L148.972 178.75L149.917 178.5L151.556 177.611L152.75 176.694L154 176L153.222 175.361L152.694 175.472L151.889 175.444L150.972 175.639L149 175.972L148 176.111L147 176.167L145 176.083L144 175.889L142.083 175.111L140.389 174L139.667 173.417L138.833 172.889L138.417 172.528L137 172L136.917 169.944L136.611 168L136.389 167L136.056 165L135.944 164L135.611 162L135.389 161L135.083 159L135.028 158.056L135 157.056L135 155L133.833 155.778L133.583 156.306L133.028 157.111L132.194 159L131.806 160L130.917 162L130.389 163L129.111 165L128.361 166L126.861 168L126.139 168.972L124.611 170.75L123.806 171.528L122.306 172.778L121.722 173.417L121.361 173.778L121 175L117 175L117 171.944L117 170L117.028 168L117.083 167L117.389 165L117.611 164L117.944 162L118.056 161L118.389 159L118.806 157L119.194 155L119.389 154L119.611 153L119.917 151L119.972 150L119.944 148.111L119.75 147.306L119.722 146.778L119 146M274 150L274.583 152.056L274.917 154L274.972 155L275 156L275 158L274.972 160L274.889 160.972L274.667 161.889L274.278 162.667L273.722 163.278L272.944 163.667L271 164L270.417 161.944L270.25 160.944L270.167 160L270.417 158L270.694 157L271.389 155L271.806 154L272.583 152.111L273 151.306L273.194 150.778L274 150M472 153L471 154L472 153M106 155L105.917 156.5L105.778 157.056L105.389 159L105 161L104.528 163L104.167 164L103.444 166L102.833 168L102.528 169L101.611 171L100.528 172.972L99.4722 174.778L98.9167 175.611L98.2778 176.389L97.5833 177.222L95.9167 178.944L94.1111 180.556L93.3056 181.333L92.7778 181.75L92 183L90.5556 182.278L90 182.25L88 182L87.6667 180.5L87.3889 179.944L87 178.944L86.3056 177L86 175L85.9167 174L85.6111 172L85.3889 171L85.0833 169L85 168.028L84.7222 166.333L84.1389 165.361L83 165L83.25 166.5L83.6111 168.056L83.9167 170L83.9722 171L84.0278 173L84.0833 174L84.3889 176L84.6389 177L85.1667 179L85.4444 180L86.2778 181.972L86.8611 182.889L87.4722 183.694L89.0278 184.889L89.9722 185.306L90.5 185.556L92 186L93.5 184.75L95.0556 183.583L95.9722 182.861L96.9167 182.139L98.5278 180.611L99.1667 179.778L99.8056 178.917L101 177L101.611 176L102.722 174L103.556 172L103.833 171L104.139 170L104.611 168L104.917 166.056L104.972 165.5L105 164L107 164L107 172L107.722 171.222L107.75 170.694L107.944 169.889L107.972 168.972L107.972 167L107.861 165.083L107.833 164.222L107.75 163.389L107.75 162.611L107.556 160.917L107.361 159.972L107.056 158.028L106.972 157.111L106.75 156.306L106.722 155.778L106 155M69 156L69.25 157.5L69.6389 159.056L69.8611 160L70.1389 161L70.3611 162L70.6111 163L70.9167 165L71.0278 167L71.0833 168L71.3333 169.972L71.4722 170.917L71.6111 171.778L71.6944 172.611L71.8056 173.389L71.8611 174.222L71.9444 175.083L72 176.944L72 179L70.5 179.667L69.9444 179.972L68 180.694L67.0556 180.889L65.5 181L64 181L63 180L62.9167 178.5L62.7778 177.944L62.6111 176.944L62.3889 176L62.1667 174L62.3889 172L62.6111 171L62.9167 169L62.9722 168L63.0278 167L63.2222 165L63.4167 164L64 162L64.3333 161L65.0556 159.056L65.5833 158.056L65.8333 157.5L67 156L69 156M483 156L484 157L483 156M63 160L62 161L63 160M116 160L115 161L116 160M213 164L212.417 166L212.222 167L212.083 167.5L212 169L213 168.222L213.222 167.694L213.778 166.944L214.5 165.5L215 164L213 164M60 170L59.9444 171.5L59.8611 172.056L59.8056 173.056L59.6111 175L59.4722 176L59.3333 177L59.0833 179L59 181L59 182L59 183L59.0278 185L59.1111 185.972L59.2778 186.889L59.6667 187.694L59.8611 188.222L61 189L60.4167 186.944L60.2222 185.944L60.0833 185L60 183L60 181L60 177L60.8056 177.778L61 178.306L61.4167 179.111L62.25 181L63.1667 182.944L63.5 183.5L64 185L66.0556 184.917L67.9444 184.611L69.5 184.25L71 184L70.5556 185.5L70.3333 186.056L69.6667 188L68.9722 189.972L68.5833 190.917L67.5833 192.611L66.3889 194.167L66.0556 194.583L65 196L63 196L62.0278 194.5L61.8611 193.944L61.4444 193L61.0833 191.5L61 190L60.2778 191.5L60.2778 192.056L60.1389 193.056L60.3889 194.944L60.75 196.5L61 198L59.5833 199.056L58.3889 200L57.6667 200.611L56 202L55 202L53 201L53.2222 198.944L53.25 197.944L53.4444 196L53.6389 195L53.9444 193L54.0556 192L54.3889 190L54.6111 189L54.9444 187L55.0556 186L55.4167 184L56 182L56.6111 180L56.8611 179L57.3611 177L57.6111 176L58 174L58.2222 173.028L58.4444 172.111L58.8611 171.306L59.0278 170.778L60 170M270 183L269 184L270 183M105 208L105 210.056L105 211.056L104.972 213L104.917 214L104.611 216L104.389 217L104.083 219L104.028 220L104 222L103.972 224L103.917 225L103.611 227L103.389 228L103.083 230L103.028 231L103 233L102.917 235L102.778 235.944L102.583 236.944L102 239L103.139 238.639L103.722 237.667L103.889 236.889L104.028 235L104.083 234L104.389 232L104.611 231L104.917 229L105 227L105 225L105.028 223L105.083 222L105.389 220L105.611 219L105.917 217L105.972 216L106.028 214L106.083 213L106.389 211.056L106.75 209.5L107 208L105 208z"/>
</svg>
