<svg xmlns="http://www.w3.org/2000/svg" width="104.079" height="74" viewBox="0 0 104.079 74">
  <path id="Path_69" data-name="Path 69" d="M516.1,3184c-.35-2.436-.831-5.388-1-8a44.88,44.88,0,0,1,0-5c0-11.665,1.823-23.463,6-34s8.9-19.687,15-27l27,6a134.2,134.2,0,0,0-8,26,130.556,130.556,0,0,0-3,27v2c0,1.133-.089,2.521,0,4s-.091,3.433,0,5,.826,2.785,1,4Zm56,0c-.35-2.436-.831-5.388-1-8a44.88,44.88,0,0,1,0-5c0-11.665,1.823-23.463,6-34a100.168,100.168,0,0,1,16-27l26,6a134.211,134.211,0,0,0-8,26,130.556,130.556,0,0,0-3,27v2c0,1.133-.089,2.521,0,4s-.091,3.433,0,5,.826,2.785,1,4Z" transform="translate(-515.017 -3110)" fill="#fff" opacity="0.4"/>
</svg>
